<?xml version="1.0" standalone="no"?>
<!DOCTYPE svg PUBLIC "-//W3C//DTD SVG 20010904//EN"
 "http://www.w3.org/TR/2001/REC-SVG-20010904/DTD/svg10.dtd">
<svg version="1.0" xmlns="http://www.w3.org/2000/svg"
 width="1000.000000pt" height="1000.000000pt" viewBox="0 0 1000.000000 1000.000000"
 preserveAspectRatio="xMidYMid meet">
<metadata>
Created by potrace 1.11, written by Peter Selinger 2001-2013
</metadata>
<g transform="translate(0.000000,1000.000000) scale(0.100000,-0.100000)"
fill="#000000" stroke="none">
<path d="M5992 9658 c-56 -4 -148 -19 -203 -33 -148 -38 -230 -83 -336 -186
-24 -23 -43 -38 -43 -34 0 3 -12 -8 -27 -27 -16 -18 -38 -44 -50 -58 -13 -14
-23 -30 -23 -37 0 -7 -3 -13 -7 -13 -10 0 -90 -121 -144 -216 -13 -23 -52 -87
-86 -143 -35 -56 -63 -104 -63 -106 0 -3 -24 -40 -52 -82 -29 -43 -58 -87 -64
-98 -13 -23 -73 -127 -116 -200 -16 -27 -32 -58 -35 -67 -3 -10 -9 -18 -13
-18 -5 0 -11 -13 -15 -30 -4 -16 -10 -30 -15 -30 -5 0 -12 -10 -16 -22 -9 -32
-80 -200 -115 -274 -16 -34 -29 -67 -29 -73 0 -6 -14 -41 -31 -78 -120 -260
-188 -520 -204 -778 -3 -55 -8 -112 -11 -127 -11 -53 -12 -215 -3 -263 14 -73
14 -157 0 -184 -7 -12 -10 -25 -7 -28 2 -3 1 -10 -4 -17 -43 -52 -63 -80 -103
-143 -49 -76 -108 -142 -155 -171 -15 -9 -54 -37 -87 -61 -563 -417 -626 -471
-825 -690 -47 -52 -90 -99 -96 -105 -16 -18 -107 -120 -131 -149 -13 -15 -20
-27 -17 -27 7 0 -75 -101 -91 -112 -5 -4 -7 -8 -3 -8 6 0 -34 -49 -74 -92 -10
-10 -18 -22 -18 -28 0 -5 -4 -10 -10 -10 -5 0 -10 -5 -10 -10 0 -6 -9 -20 -19
-31 -11 -12 -40 -61 -66 -109 -26 -49 -62 -111 -81 -140 -18 -28 -28 -48 -21
-43 9 5 9 3 1 -8 -6 -8 -33 -77 -59 -154 -26 -77 -54 -152 -61 -167 -26 -51
-75 -194 -95 -278 -28 -114 -28 -116 -40 -185 -5 -33 -14 -80 -19 -105 -6 -25
-13 -58 -15 -75 -3 -16 -16 -100 -31 -185 -27 -164 -26 -136 -21 -720 2 -159
-8 -323 -19 -342 -3 -5 -8 -32 -11 -61 -2 -29 -9 -70 -15 -91 l-10 -39 -23 29
c-14 16 -24 33 -25 37 0 5 -15 28 -33 52 -17 24 -45 62 -61 85 -18 23 -33 36
-37 29 -4 -7 -8 -5 -12 5 -10 26 -124 103 -164 111 -31 6 -40 3 -54 -14 -10
-12 -29 -22 -42 -23 -14 -1 -24 -5 -21 -9 2 -4 -8 -14 -22 -24 -19 -12 -25
-23 -22 -44 2 -22 -5 -35 -30 -55 -17 -15 -31 -30 -30 -34 1 -4 -3 -17 -10
-29 -7 -13 -9 -23 -5 -23 4 0 2 -4 -6 -9 -14 -9 -7 -31 10 -31 6 0 7 4 4 10
-3 6 -2 10 4 10 5 0 17 3 26 6 14 6 14 3 3 -22 -6 -16 -23 -45 -37 -64 -43
-58 -58 -93 -55 -127 3 -37 17 -33 -142 -37 -69 -1 -74 -5 -131 -91 -83 -124
-93 -141 -100 -155 -3 -8 -11 -18 -16 -21 -8 -6 2 -66 29 -164 2 -11 7 -38 9
-60 2 -22 9 -62 15 -90 5 -27 13 -66 16 -85 7 -44 21 -76 53 -120 15 -19 43
-61 63 -92 20 -31 49 -71 65 -89 37 -44 105 -120 121 -137 6 -7 12 -18 12 -23
0 -5 18 -34 40 -63 22 -29 40 -58 40 -63 0 -6 7 -13 15 -17 8 -3 15 -12 15
-20 0 -7 7 -16 15 -20 8 -3 15 -13 15 -21 0 -9 5 -13 10 -10 5 3 10 2 10 -4 0
-16 67 -76 175 -158 55 -42 102 -79 105 -82 3 -4 20 -13 38 -20 17 -8 32 -17
32 -22 0 -5 7 -9 15 -9 8 0 37 -14 65 -30 28 -17 54 -30 58 -30 4 0 41 -13 82
-29 120 -47 188 -53 263 -25 23 9 60 16 82 16 222 0 266 -8 238 -45 -6 -7 -7
-25 -1 -45 7 -25 14 -32 33 -32 14 0 25 5 25 11 0 5 4 8 9 5 11 -7 66 57 89
104 9 19 23 36 30 36 6 1 14 3 17 4 7 4 15 6 60 15 22 4 82 25 133 46 50 20
92 36 92 33 0 -2 20 8 45 22 25 13 45 22 45 20 0 -9 132 66 205 115 71 49 92
69 225 219 41 47 98 109 125 140 28 30 61 69 75 85 14 17 46 49 71 71 44 40
49 42 105 40 33 -1 66 -6 73 -10 7 -4 15 -5 18 -2 3 3 26 -6 50 -21 47 -27 56
-27 183 -5 87 16 221 6 301 -22 42 -15 83 -23 102 -20 55 8 632 17 710 11 22
-2 34 -12 55 -49 33 -57 22 -75 -49 -84 -34 -5 -54 -13 -64 -28 -22 -30 -19
-44 13 -60 42 -22 294 -10 392 19 3 1 19 7 35 14 71 30 178 51 288 57 65 4
120 11 123 16 3 4 20 8 38 8 18 0 36 3 40 7 3 4 12 8 19 9 32 7 56 13 97 28
25 8 56 17 70 19 14 3 53 14 87 26 78 26 94 26 124 0 20 -18 33 -20 77 -16 29
3 59 11 67 17 7 6 23 13 35 15 27 5 234 107 238 117 2 5 10 8 17 8 8 0 18 6
22 14 10 17 92 65 193 112 181 86 286 139 331 170 26 17 52 34 58 36 5 1 48
38 96 82 173 158 252 328 215 464 -12 47 -72 119 -124 151 -39 24 -143 42
-221 39 l-60 -3 -3 38 c-3 31 3 46 37 89 23 28 41 58 42 67 0 9 2 25 4 36 16
88 28 155 30 180 2 17 11 59 20 95 58 228 76 491 55 800 -6 85 -13 202 -16
260 -6 128 -22 265 -34 305 -5 17 -12 44 -15 60 -9 53 -32 127 -70 230 -20 55
-61 170 -90 255 -66 192 -217 575 -256 646 -107 199 -121 234 -136 342 -11 80
-20 113 -38 136 -16 21 -29 60 -39 123 -17 97 -38 157 -58 169 -7 5 -30 11
-51 14 l-38 5 -39 104 c-39 101 -88 200 -137 273 -30 45 -27 65 22 139 19 30
35 59 35 67 0 15 16 68 111 359 5 18 12 40 14 50 2 10 10 38 18 63 17 53 37
133 43 175 3 17 7 36 9 43 5 14 30 387 40 600 15 306 -57 783 -156 1034 -98
250 -315 565 -435 632 -50 28 -165 75 -198 82 -11 2 -48 10 -81 18 -72 18
-231 24 -373 14z m-297 -218 c-3 -5 -12 -10 -18 -10 -7 0 -6 4 3 10 19 12 23
12 15 0z m-43 -22 c-7 -7 -12 -8 -12 -2 0 14 12 26 19 19 2 -3 -1 -11 -7 -17z
m530 -41 c-9 -16 -26 -33 -37 -37 -11 -4 -32 -19 -46 -34 -14 -14 -40 -29 -56
-32 -28 -6 -31 -3 -35 25 -2 17 -1 31 4 31 5 0 6 5 2 12 -4 6 -3 8 3 5 6 -4
24 8 39 26 18 20 41 33 59 36 17 1 31 7 33 11 2 5 14 4 27 -2 24 -11 24 -11 7
-41z m511 -63 c20 -29 37 -57 37 -63 0 -6 4 -11 9 -11 5 0 11 -8 14 -17 2 -10
8 -27 13 -38 7 -18 6 -18 -20 3 -16 12 -41 22 -57 22 -44 0 -64 49 -61 143 2
44 5 42 65 -39z m-47 -290 c3 -18 2 -44 -2 -58 l-9 -26 -41 33 c-46 36 -47 67
-3 77 42 11 49 7 55 -26z m-1086 -81 c0 -7 -2 -13 -4 -13 -2 0 -19 -6 -38 -14
l-34 -15 4 36 c5 41 39 61 59 34 7 -9 13 -22 13 -28z m1372 -48 c40 -90 81
-225 68 -225 -23 0 -40 34 -40 80 0 27 -4 51 -9 54 -16 10 -69 112 -71 137 -6
72 3 63 52 -46z m-513 29 c5 3 12 -1 15 -10 3 -8 9 -13 14 -11 4 3 16 -1 27
-9 41 -30 31 -262 -21 -462 -36 -140 -44 -161 -86 -222 -55 -80 -67 -86 -116
-50 -43 31 -53 53 -72 163 -17 94 4 311 31 328 6 3 10 8 10 10 -2 13 13 49 20
49 5 0 8 3 7 8 0 4 7 24 16 46 9 21 15 40 12 43 -2 3 11 19 30 35 19 17 32 33
29 36 -3 3 9 14 26 24 19 12 27 23 23 31 -6 8 -3 8 9 -1 9 -8 20 -11 26 -8z
m-244 -53 c3 -5 2 -12 -3 -15 -5 -3 -9 1 -9 9 0 17 3 19 12 6z m519 -50 c9
-32 -9 -167 -25 -185 -10 -11 -23 37 -24 91 0 22 -3 39 -7 36 -5 -2 -8 0 -8 6
0 5 5 13 10 16 6 3 10 19 10 34 0 52 29 54 44 2z m-870 3 c9 -24 7 -104 -2
-104 -5 0 -17 15 -27 34 -16 29 -17 39 -7 60 13 30 27 33 36 10z m-217 -26 c5
-7 21 -40 35 -73 25 -59 25 -64 23 -285 -3 -214 -7 -260 -25 -260 -4 0 -15
-17 -23 -39 -17 -42 -11 -39 -153 -57 -61 -7 -66 -3 -151 124 -30 45 -64 87
-74 93 -24 13 -25 65 -1 116 9 21 19 40 22 43 3 3 23 32 45 65 22 33 44 63 48
66 5 3 9 10 9 15 -1 23 56 96 85 109 18 9 36 21 40 28 13 21 65 57 73 52 5 -3
11 -1 15 5 8 14 21 13 32 -2z m258 -389 c14 -37 13 -38 -20 -64 l-34 -26 -6
23 c-4 18 -1 145 5 178 2 9 41 -71 55 -111z m144 -158 c11 -21 26 -41 33 -44
8 -2 27 -29 43 -58 33 -63 66 -95 124 -126 46 -25 90 -30 107 -13 8 8 15 6 23
-4 10 -12 9 -32 -3 -98 -8 -46 -20 -132 -26 -192 -6 -60 -18 -139 -26 -175
-13 -55 -37 -487 -34 -614 0 -28 21 -67 51 -98 8 -8 21 -44 28 -80 20 -101 59
-220 88 -271 54 -91 86 -144 118 -194 19 -28 40 -71 48 -95 14 -40 14 -45 -1
-61 -9 -9 -24 -18 -32 -20 -8 -2 -30 -13 -48 -26 -50 -36 -67 -12 -36 53 22
46 15 69 -20 73 -27 3 -28 5 -21 48 3 24 3 53 0 64 -11 34 -67 26 -144 -20
-37 -22 -72 -40 -78 -40 -7 0 -28 -20 -49 -45 -20 -25 -41 -45 -47 -45 -5 0
-16 -8 -23 -17 -7 -10 -15 -15 -18 -12 -3 3 -8 54 -11 113 l-6 107 31 -5 c18
-2 34 -7 38 -10 3 -3 16 1 29 10 16 10 35 13 52 9 25 -5 31 -1 51 32 16 27 20
47 16 71 -3 23 -1 35 10 39 10 4 14 24 14 82 0 73 -1 78 -25 89 -22 10 -25 18
-25 64 0 74 -7 92 -42 112 l-30 18 7 87 c8 104 31 231 44 244 6 6 6 19 0 34
-10 26 -6 60 9 90 5 10 10 68 11 128 1 61 7 125 13 144 14 45 6 238 -12 271
-7 14 -16 38 -20 55 -4 19 -13 31 -25 33 -11 2 -45 23 -76 47 -31 23 -78 55
-105 70 -26 15 -53 34 -60 43 -6 8 -22 17 -35 19 -13 2 -32 14 -42 26 -10 12
-15 16 -11 8 5 -10 3 -12 -5 -7 -9 6 -9 12 1 24 25 32 35 40 76 61 23 12 42
26 42 31 0 19 10 10 29 -29z m-834 -111 c14 -22 25 -46 25 -54 0 -16 -59 -56
-84 -56 -22 0 -22 62 0 95 9 14 13 25 9 25 -4 0 -2 7 5 15 17 20 16 20 45 -25z
m1913 -230 c-1 -74 -5 -146 -9 -160 -4 -14 -8 26 -8 95 0 66 -1 127 -2 135 -1
8 -1 35 0 60 2 36 4 41 11 25 5 -11 9 -81 8 -155z m-1798 117 c0 -5 -4 -6 -9
-2 -5 3 -3 -8 5 -25 9 -16 23 -34 32 -40 14 -8 13 -9 -8 -10 -44 0 -56 23 -44
84 5 21 8 25 15 15 5 -8 9 -18 9 -22z m424 -80 l-9 -41 -70 -12 c-86 -14 -106
-22 -103 -42 6 -32 -22 -22 -47 17 -14 23 -30 41 -35 41 -7 0 -7 6 -1 19 9 16
55 30 111 33 8 0 20 5 27 10 7 5 18 6 24 2 7 -4 17 0 24 9 19 26 57 36 73 20
11 -11 12 -24 6 -56z m-341 6 c-7 -2 -19 -2 -25 0 -7 3 -2 5 12 5 14 0 19 -2
13 -5z m58 -21 c-7 -2 -18 1 -23 6 -8 8 -4 9 13 5 13 -4 18 -8 10 -11z m483
-59 c21 -21 28 -23 41 -13 12 10 20 9 41 -5 23 -15 25 -21 19 -53 -9 -48 -11
-54 -18 -72 -4 -8 -8 -33 -9 -55 l-4 -40 -8 39 c-6 26 -5 45 2 57 7 10 10 24
8 31 -3 7 -7 25 -10 41 -8 33 -37 36 -65 6 -20 -22 -40 -87 -45 -145 -1 -16
-6 -35 -10 -42 -11 -18 20 -79 45 -87 30 -10 73 37 66 72 -2 14 -1 21 3 16 5
-4 10 -72 12 -150 3 -142 -1 -160 -30 -131 -6 6 -35 11 -66 9 -39 -1 -57 2
-63 12 -4 8 -17 16 -28 18 -26 5 -38 67 -26 133 17 86 19 93 50 191 16 52 31
116 32 143 3 57 23 65 63 25z m-488 -54 c15 -16 15 -23 0 -87 -9 -38 -18 -76
-22 -85 -3 -9 4 -25 16 -37 17 -17 29 -21 53 -16 18 4 40 7 50 7 15 0 24 30
18 63 -1 5 3 12 8 16 6 3 12 18 13 33 1 15 6 27 9 27 4 0 6 15 3 34 -3 25 0
36 14 41 31 14 47 10 64 -15 21 -30 22 -35 6 -52 -7 -7 -21 -30 -30 -50 -11
-24 -24 -38 -36 -38 -14 0 -28 -19 -50 -69 -17 -38 -34 -81 -38 -96 -6 -25 -9
-26 -43 -19 -20 4 -53 8 -73 9 -45 1 -47 3 -52 51 -7 66 -33 194 -40 202 -4 4
-13 7 -19 7 -17 0 -8 57 11 76 24 24 116 22 138 -2z m-519 -371 c-3 -8 -6 -5
-6 6 -1 11 2 17 5 13 3 -3 4 -12 1 -19z m7 -89 c3 -17 6 -67 6 -111 0 -77 -1
-79 -22 -76 -20 3 -23 10 -26 55 -2 29 3 71 9 95 7 24 12 49 10 56 -5 28 17
10 23 -19z m1526 -264 c0 -49 5 -121 10 -160 5 -38 12 -95 16 -125 10 -78 -3
-58 -33 51 -28 104 -30 131 -20 269 4 52 7 104 8 115 3 48 18 -69 19 -150z
m-873 110 c0 -8 -4 -12 -9 -9 -5 3 -6 10 -3 15 9 13 12 11 12 -6z m1453 -56
c0 -21 -23 -104 -31 -113 -9 -10 -2 101 7 116 7 12 24 10 24 -3z m-2228 -221
c-8 -8 -9 -4 -5 13 4 13 8 18 11 10 2 -7 -1 -18 -6 -23z m2113 -220 c-28 -117
-48 -173 -65 -183 -11 -7 -14 18 -3 29 4 4 9 30 11 59 2 29 7 54 10 57 15 11
30 48 37 90 7 43 23 75 32 66 3 -3 -7 -56 -22 -118z m-2188 80 c-3 -7 -5 -2
-5 12 0 14 2 19 5 13 2 -7 2 -19 0 -25z m482 -125 c46 -138 64 -171 96 -183
15 -6 28 -31 49 -93 16 -47 46 -112 67 -144 21 -32 39 -70 39 -84 0 -44 19
-57 93 -63 67 -5 68 -5 78 22 10 26 11 26 25 8 8 -11 14 -26 14 -33 0 -18 37
-36 42 -21 3 7 12 4 26 -10 27 -27 32 -27 33 -4 0 13 3 12 11 -5 13 -28 24
-29 37 -5 6 9 11 13 12 7 0 -5 7 8 14 30 l12 40 66 -1 c78 -1 111 -19 80 -42
-10 -8 -51 -29 -92 -48 -41 -19 -97 -51 -125 -71 -68 -49 -139 -56 -206 -20
-95 51 -227 259 -265 414 -25 105 -95 202 -156 216 -31 8 -66 -15 -80 -50 -10
-27 -5 -38 43 -110 14 -22 38 -84 52 -139 15 -54 40 -125 56 -156 26 -51 43
-76 123 -183 66 -88 156 -142 252 -150 105 -9 137 -14 144 -21 3 -3 -15 -25
-41 -48 -38 -34 -48 -48 -48 -74 0 -18 -4 -32 -8 -32 -5 0 -56 40 -113 89
-119 102 -296 289 -354 374 -33 50 -37 61 -27 77 21 34 13 59 -29 102 -47 48
-78 109 -79 150 0 15 -11 57 -25 94 -30 81 -31 90 -4 97 12 3 18 10 15 16 -4
6 -2 20 4 31 6 11 13 37 16 58 7 58 14 72 35 72 11 0 22 6 25 14 3 7 14 11 28
9 20 -4 29 -23 65 -130z m-439 -107 c0 -20 0 -20 -15 0 -8 10 -14 39 -14 64
l0 45 15 -45 c7 -25 14 -54 14 -64z m38 -118 c16 -43 28 -78 25 -78 -6 0 -49
100 -57 135 -12 46 -1 27 32 -57z m-105 -53 c-4 -12 -9 -13 -19 -4 -8 6 -14
18 -14 26 0 11 4 11 20 3 11 -6 17 -16 13 -25z m139 -82 c41 -45 70 -92 123
-195 72 -140 120 -201 305 -387 209 -211 316 -284 446 -304 38 -6 171 7 204
21 14 5 27 9 30 8 3 0 26 12 52 27 26 15 52 27 59 27 22 0 117 70 196 143 43
40 93 87 113 105 19 18 64 60 99 93 46 43 66 57 71 47 4 -7 19 -53 33 -103 26
-91 28 -104 47 -295 12 -122 36 -270 52 -320 6 -19 13 -46 14 -60 11 -86 15
-126 19 -214 3 -54 15 -151 26 -215 11 -64 22 -138 25 -166 3 -27 9 -75 14
-105 4 -30 9 -104 10 -165 1 -60 3 -123 5 -140 2 -16 6 -50 9 -75 3 -25 8 -65
11 -90 2 -25 10 -90 16 -144 11 -94 7 -354 -7 -416 -3 -14 -7 -83 -10 -155 -3
-71 -10 -134 -15 -140 -7 -7 -29 11 -66 53 -77 87 -158 127 -263 128 -41 1
-111 2 -156 4 -72 3 -85 1 -131 -24 -72 -40 -121 -83 -137 -121 -11 -26 -13
-83 -10 -263 3 -212 5 -236 29 -310 22 -70 32 -86 75 -125 28 -25 50 -47 50
-50 0 -2 -26 -31 -58 -63 -85 -87 -128 -154 -224 -349 -33 -66 -68 -136 -78
-155 -11 -19 -71 -138 -135 -265 -107 -214 -115 -235 -119 -299 -3 -37 -1 -79
4 -92 8 -20 6 -24 -11 -24 -13 0 -18 -4 -13 -12 5 -8 2 -9 -9 -5 -9 3 -18 3
-21 -1 -5 -9 -48 -8 -62 1 -18 10 -158 1 -162 -12 -2 -6 -15 -11 -28 -11 -14
0 -23 4 -20 9 9 15 -30 17 -254 13 -510 -7 -595 -5 -650 22 -14 7 -55 12 -92
11 -52 -1 -68 2 -68 12 0 8 -4 11 -10 8 -5 -3 -10 -3 -10 2 0 4 -16 8 -35 9
-18 0 -32 -3 -29 -7 5 -9 -37 1 -52 12 -6 5 -19 0 -32 -12 -12 -11 -22 -17
-22 -14 0 4 -6 0 -14 -7 -8 -7 -28 -24 -46 -38 -51 -40 -90 -79 -90 -90 0 -6
-4 -10 -9 -10 -4 0 -29 -26 -54 -58 -25 -33 -61 -74 -79 -93 -18 -19 -56 -61
-83 -93 -121 -143 -141 -160 -254 -219 -61 -31 -114 -58 -119 -59 -4 -1 -31
-12 -61 -25 -99 -44 -172 -66 -183 -55 -9 9 11 93 43 182 20 55 35 181 33 280
-10 445 -13 497 -27 545 -9 28 -18 70 -21 95 -14 104 -17 140 -11 140 9 0 79
-32 85 -39 12 -14 99 -51 142 -60 89 -20 213 -14 246 12 6 5 12 7 12 4 0 -4
24 7 54 23 30 17 61 30 70 30 9 0 16 5 16 10 0 6 6 10 13 10 25 0 167 150 167
176 0 3 9 19 21 35 11 16 17 29 12 29 -4 0 -3 4 2 8 6 4 19 25 31 47 17 35 20
56 19 150 -2 118 -7 133 -70 230 -41 63 -76 93 -142 125 -40 19 -57 34 -70 63
-9 20 -23 38 -30 38 -7 1 -19 2 -25 3 -7 1 -25 -4 -39 -12 -24 -13 -34 -11
-145 33 -65 26 -126 48 -135 50 -26 5 -159 94 -159 106 0 6 -10 20 -22 31 -13
11 -18 17 -11 13 19 -9 31 26 26 75 -2 25 -4 52 -4 60 1 8 1 29 0 45 0 17 -1
58 -2 92 -1 35 -4 63 -7 63 -5 0 -9 117 -7 195 1 42 -1 96 -3 118 -1 6 1 23 4
37 3 14 6 43 7 65 0 22 5 54 9 70 5 17 11 57 14 90 7 70 9 86 18 100 3 6 9 29
13 52 4 24 10 45 15 48 8 5 25 73 22 88 -1 4 3 7 9 7 5 0 8 4 5 9 -3 4 4 26
15 47 11 21 38 80 60 129 23 50 50 109 61 132 11 23 18 44 16 46 -2 2 9 15 25
29 15 14 27 29 27 34 0 5 9 15 20 22 11 7 20 18 20 25 0 7 8 22 18 33 10 10
32 40 50 66 17 25 35 48 39 50 9 4 89 93 120 134 12 16 47 60 77 99 30 38 53
71 51 73 -3 4 33 47 85 102 42 44 134 166 181 241 86 137 119 177 257 317 73
73 133 137 133 142 5 35 30 101 58 149 14 26 33 60 41 76 8 17 18 32 21 35 3
3 21 31 40 64 51 87 109 174 136 206 8 8 27 34 43 58 17 23 34 42 38 42 5 0
20 -12 34 -27z m2067 -205 l19 -57 -39 17 c-43 19 -43 19 -28 76 13 47 22 40
48 -36z m-630 -10 c0 -31 -1 -31 -10 -10 -5 13 -7 28 -3 33 10 16 14 9 13 -23z
m-75 -70 c-12 -19 -76 -72 -90 -74 -7 -1 -15 4 -18 12 -5 13 44 44 69 44 7 0
18 7 25 15 15 18 24 20 14 3z m476 -40 c0 -21 -16 -24 -23 -5 -2 6 -2 20 1 30
4 15 7 16 13 5 5 -7 9 -21 9 -30z m272 -40 c-9 -9 -12 -4 -11 23 0 32 1 33 11
11 8 -17 8 -26 0 -34z m-739 -90 c-10 -11 -18 -26 -18 -33 0 -22 -145 -142
-209 -174 -72 -34 -187 -71 -225 -71 -15 0 -36 6 -47 14 -19 14 -19 15 0 22
10 4 37 2 60 -4 40 -10 73 -1 61 18 -3 4 1 10 9 13 8 3 29 31 47 61 20 33 41
56 51 56 9 0 19 4 23 10 3 5 12 7 19 4 9 -3 15 6 20 27 5 26 8 29 21 19 8 -6
20 -8 26 -4 12 7 79 23 107 26 8 1 21 11 30 23 9 13 23 20 30 18 10 -4 9 -10
-5 -25z m-270 -61 c-8 -12 -23 14 -22 38 0 18 1 17 13 -5 8 -14 12 -29 9 -33z
m1076 -111 c-9 -8 -10 -3 -5 23 3 18 7 41 8 50 1 9 3 -1 5 -23 3 -22 -1 -43
-8 -50z m-2859 -63 c0 -5 -7 -17 -15 -27 -14 -18 -15 -18 -21 -2 -4 11 -1 22
7 27 17 11 29 11 29 2z m2847 -75 c-3 -7 -5 -2 -5 12 0 14 2 19 5 13 2 -7 2
-19 0 -25z m-3577 -402 c0 -5 -32 -81 -36 -85 -2 -2 -19 12 -39 32 -41 41 -38
64 8 69 28 3 67 -6 67 -16z m3438 -111 c0 -43 -1 -46 -8 -20 -11 44 -11 116 0
90 5 -11 8 -42 8 -70z m-1 -172 c-3 -10 -5 -4 -5 12 0 17 2 24 5 18 2 -7 2
-21 0 -30z m-3762 -77 c-4 -34 -89 -190 -93 -171 -2 8 -9 12 -15 8 -7 -3 -4 3
6 14 9 11 17 27 17 36 0 29 43 117 57 117 7 0 13 7 13 16 0 8 4 13 9 10 4 -3
7 -17 6 -30z m4454 -208 c39 -113 80 -228 92 -255 24 -55 50 -136 45 -140 -2
-2 -10 9 -17 24 -38 76 -72 123 -89 123 -24 0 -30 20 -20 66 9 40 1 67 -27 82
-11 7 -22 48 -39 153 -25 153 -26 165 -20 158 2 -2 36 -97 75 -211z m-4140
153 c10 -7 11 -13 2 -30 -17 -30 -31 -26 -31 9 0 31 6 36 29 21z m-660 -40
c36 -23 13 -74 -58 -126 -22 -16 -41 -36 -41 -42 0 -15 -2 -15 -23 -7 -14 5
-14 10 0 50 8 24 20 44 26 44 6 0 8 3 4 6 -6 6 2 17 41 59 25 27 30 29 51 16z
m4215 -529 c8 -325 13 -417 26 -491 12 -68 13 -121 1 -121 -16 0 -21 30 -21
118 0 48 -5 128 -10 177 -5 50 -12 119 -15 155 -4 36 -9 79 -11 95 -3 17 -8
109 -11 205 -5 174 -5 175 15 157 18 -16 20 -36 26 -295z m421 -658 c7 -82 2
-97 -23 -72 -13 13 -17 155 -5 198 7 24 7 24 14 -8 4 -18 10 -71 14 -118z
m-4672 -14 c-3 -11 -9 -17 -14 -14 -14 8 -10 34 5 34 9 0 12 -7 9 -20z m4154
-432 c-3 -8 -6 -5 -6 6 -1 11 2 17 5 13 3 -3 4 -12 1 -19z m910 -160 c-5 -35
-15 -74 -23 -88 -13 -24 -13 -24 -15 20 -5 124 10 181 37 145 8 -10 8 -34 1
-77z m-1594 -200 c4 -29 9 -64 13 -77 5 -16 4 -22 -4 -18 -15 10 -37 147 -23
147 5 0 11 -24 14 -52z m-3449 30 c11 -35 15 -91 5 -81 -5 5 -11 18 -14 29 -2
10 -7 29 -11 42 -4 14 -2 22 5 22 6 0 13 -6 15 -12z m-161 -32 c8 -20 -8 -38
-39 -42 -16 -2 -46 -7 -66 -10 -40 -7 -44 -2 -32 43 5 18 14 23 53 25 57 4 78
0 84 -16z m4306 -28 c6 -17 10 -33 8 -35 -2 -2 -23 3 -46 11 -23 9 -43 15 -46
16 -3 0 -11 0 -17 1 -15 1 61 38 79 39 6 0 16 -14 22 -32z m71 -73 c0 -14 -1
-25 -3 -25 -2 0 -14 11 -27 25 l-23 25 26 0 c22 0 27 -5 27 -25z m-4334 -97
c30 -21 54 -55 54 -78 0 -5 -15 -16 -34 -25 -58 -28 -65 -86 -12 -115 60 -33
142 -242 165 -422 6 -42 19 -116 30 -165 11 -48 22 -108 26 -133 5 -38 23
-130 41 -215 3 -11 7 -94 9 -185 3 -91 7 -176 10 -190 7 -35 7 -167 0 -213 -3
-21 -14 -79 -26 -130 -12 -50 -23 -104 -26 -119 -3 -16 -10 -28 -15 -28 -5 0
-7 -4 -4 -9 3 -5 -1 -25 -9 -45 -8 -20 -14 -39 -13 -42 2 -4 -15 -13 -37 -21
-40 -14 -191 -14 -245 1 -14 4 -50 9 -80 11 -31 2 -60 5 -65 6 -16 4 -75 -12
-75 -21 0 -16 -42 -18 -76 -4 -19 8 -34 11 -34 7 0 -5 -4 -2 -9 6 -5 8 -20 16
-32 18 -13 2 -26 7 -29 11 -3 4 -10 8 -15 9 -16 3 -156 83 -192 110 -39 29
-41 40 -9 53 22 8 42 52 32 69 -3 4 -8 22 -11 40 -4 25 -2 31 7 25 14 -8 130
-95 161 -120 9 -7 17 -11 17 -7 0 3 8 -1 18 -9 9 -9 52 -35 95 -58 63 -34 85
-41 113 -37 25 4 33 2 29 -6 -4 -7 7 3 24 22 16 19 29 38 28 44 -2 10 14 14
88 20 44 4 52 1 78 -24 20 -20 40 -30 65 -31 99 -5 117 8 113 81 -1 27 3 67 9
90 13 49 23 129 24 192 1 45 -19 99 -36 99 -4 0 -19 10 -32 21 -34 29 -44 91
-20 127 14 22 17 46 16 132 -1 58 -4 114 -6 125 -10 55 -16 109 -21 205 -8
141 -23 279 -35 335 -6 25 -13 62 -16 83 -7 44 -31 147 -34 147 -2 0 -9 37
-12 63 -1 6 -5 12 -10 12 -4 0 -8 7 -8 15 0 9 -8 19 -17 22 -10 4 -20 10 -23
14 -3 5 -30 11 -60 15 -47 5 -58 3 -77 -15 -12 -12 -29 -21 -38 -21 -9 0 -37
-22 -64 -50 -27 -27 -47 -50 -45 -50 2 0 -1 -12 -7 -27 -12 -33 -18 -71 -24
-153 -3 -36 -7 -78 -11 -95 -3 -16 -8 -48 -10 -70 -2 -21 -11 -46 -20 -55 -14
-14 -17 -13 -30 4 -19 26 -18 66 1 66 8 0 15 5 15 11 0 5 5 7 10 4 13 -8 13
-4 -5 38 -8 20 -10 37 -5 39 5 2 11 17 14 33 2 17 5 30 6 30 1 0 3 25 5 55 3
67 14 129 26 153 5 9 7 17 3 17 -8 0 63 126 95 169 42 57 69 79 139 120 78 46
104 49 148 19z m4181 -47 c-7 -61 -26 -111 -42 -111 -6 0 -25 15 -42 34 -31
32 -76 50 -150 60 -28 4 -38 -3 -101 -73 -39 -42 -93 -105 -120 -141 -36 -48
-56 -66 -76 -68 -49 -6 -167 -138 -294 -328 -22 -34 -47 -39 -35 -8 17 44 152
288 178 321 61 77 148 154 243 217 116 76 204 115 292 128 36 5 76 15 90 22
14 7 33 10 44 8 16 -4 18 -12 13 -61z m436 -21 c-6 -21 -30 -39 -64 -45 -27
-5 -24 9 7 25 14 8 30 22 35 32 13 24 29 14 22 -12z m-5380 -221 c42 -43 46
-63 16 -79 -42 -23 -87 8 -96 64 -5 31 -23 46 -57 46 -20 0 -35 7 -43 20 -11
16 -9 21 9 34 20 14 26 13 77 -15 31 -17 73 -49 94 -70z m4885 -8 c7 -21 12
-58 12 -81 0 -49 21 -80 55 -80 22 0 45 -17 45 -34 0 -5 -3 -7 -6 -3 -3 3 -31
-19 -62 -49 -32 -29 -61 -54 -67 -54 -5 0 -21 9 -35 20 -14 11 -33 20 -42 20
-9 0 -29 5 -43 10 l-27 10 22 35 c12 19 28 48 36 64 8 17 19 33 24 36 10 6 1
45 -11 45 -5 0 -9 7 -9 16 0 18 67 83 86 84 6 0 16 -17 22 -39z m479 -1 c6
-32 28 -50 62 -50 12 0 21 -3 21 -8 0 -4 -25 -45 -55 -92 -30 -47 -55 -88 -55
-92 0 -14 -27 -8 -51 10 -19 15 -140 58 -184 66 -5 1 -18 6 -28 12 -16 9 -9
16 53 55 40 24 78 50 86 57 7 7 17 13 21 14 19 2 57 20 81 38 34 27 41 25 49
-10z m293 -110 c7 -22 11 -42 9 -44 -2 -1 -19 -10 -37 -19 -25 -12 -34 -13
-38 -3 -5 14 33 106 45 106 4 0 14 -18 21 -40z m428 -65 c13 -3 29 -10 35 -15
7 -6 22 -18 34 -28 19 -14 23 -28 24 -77 1 -62 -27 -141 -61 -175 -3 -3 -16
-21 -29 -40 -13 -19 -53 -60 -89 -90 -35 -30 -70 -60 -76 -66 -22 -21 -108
-64 -117 -59 -5 4 -9 2 -9 -3 0 -13 -86 -55 -101 -50 -7 2 7 17 32 32 24 15
75 47 114 72 38 24 91 65 118 91 39 39 48 53 43 73 -4 22 1 29 38 48 23 13 50
35 59 51 16 27 16 28 -15 51 -17 13 -49 28 -71 35 -43 13 -80 4 -156 -34 -25
-13 -59 -19 -106 -20 -39 0 -86 -5 -105 -11 -57 -17 -60 -15 -60 40 l0 49 43
11 c23 6 49 14 57 17 8 4 18 7 22 7 4 1 13 8 20 17 11 14 44 25 188 63 8 3 26
9 40 14 24 9 84 8 128 -3z m-708 -195 c13 -11 35 -23 49 -27 23 -5 71 -44 71
-57 0 -9 -88 -46 -109 -46 -19 0 -19 1 -3 29 17 30 17 30 -17 60 -21 19 -31
36 -28 46 8 19 9 19 37 -5z m-5827 -15 c37 -15 9 -95 -34 -95 -71 0 -104 -61
-87 -164 12 -80 12 -80 21 -87 4 -3 9 -41 12 -85 l5 -79 -29 60 c-53 112 -68
150 -91 222 -29 89 -21 124 43 196 41 47 43 48 92 43 28 -2 58 -7 68 -11z
m2057 -75 c0 -5 -5 -10 -11 -10 -5 0 -7 5 -4 10 3 6 8 10 11 10 2 0 4 -4 4
-10z m2432 -105 c-1 -32 -25 -93 -41 -105 -21 -16 -50 -70 -53 -100 -1 -19
-11 -43 -20 -54 -9 -10 -26 -44 -38 -75 -12 -31 -26 -64 -31 -73 -5 -10 -9
-35 -9 -57 0 -42 15 -56 65 -60 9 0 19 -11 24 -22 5 -14 28 -29 67 -44 58 -21
100 -23 135 -5 24 13 157 -31 138 -46 -13 -10 -51 -26 -57 -24 -1 0 -15 -6
-30 -14 -25 -13 -86 -32 -179 -56 -31 -7 -34 -5 -73 46 -22 30 -38 54 -34 54
3 0 -10 20 -30 44 -20 24 -36 47 -36 51 0 3 -8 15 -18 26 -15 16 -18 33 -16
92 3 62 9 83 44 152 79 152 100 195 101 202 1 5 14 26 29 48 14 22 30 49 34
59 10 30 30 4 28 -39z m1456 -313 c-14 -9 -42 -30 -62 -46 -27 -21 -56 -32
-118 -42 -46 -8 -96 -21 -113 -28 -16 -8 -50 -17 -75 -21 l-45 -6 40 19 c66
32 197 85 204 82 2 -1 7 3 10 8 8 12 128 51 161 51 l25 1 -27 -18z m-592 -101
c5 -5 35 -16 67 -26 31 -10 57 -21 57 -26 0 -11 -47 -18 -150 -24 -47 -2 -110
-11 -140 -20 -30 -8 -80 -18 -110 -21 -30 -3 -86 -15 -123 -26 -38 -10 -74
-17 -80 -15 -7 3 11 26 40 54 43 41 62 51 115 63 35 7 83 15 108 16 25 2 61 8
80 14 74 21 121 25 136 11z"/>
<path d="M6314 8688 c-30 -14 -57 -64 -50 -93 8 -30 55 -75 79 -75 38 0 55 20
68 76 12 52 11 57 -7 68 -45 26 -69 33 -90 24z"/>
<path d="M5461 8581 c-33 -31 -61 -86 -61 -121 0 -34 40 -80 71 -80 33 0 50
20 66 79 19 74 17 117 -9 135 -30 21 -31 21 -67 -13z"/>
<path d="M5092 4104 c-60 -42 -122 -299 -145 -599 -3 -28 -11 -64 -19 -80 -9
-17 -18 -59 -21 -95 -3 -36 -11 -108 -16 -160 -22 -201 -28 -280 -30 -412 -2
-139 7 -175 31 -123 6 14 17 24 24 21 10 -4 22 10 29 34 0 3 4 41 8 85 10 112
24 230 52 445 13 102 29 228 35 280 19 148 19 152 31 210 10 52 47 196 68 268
6 19 19 49 30 68 l20 33 -26 21 c-31 24 -42 25 -71 4z"/>
<path d="M4910 2615 c-33 -40 -68 -698 -38 -716 9 -6 16 1 23 23 6 17 20 38
31 47 21 17 25 41 40 281 3 41 12 135 20 208 15 126 15 134 -1 152 -22 24 -58
26 -75 5z"/>
</g>
</svg>
